<?xml version="1.0" standalone="no"?><!DOCTYPE svg PUBLIC "-//W3C//DTD SVG 1.1//EN" "http://www.w3.org/Graphics/SVG/1.1/DTD/svg11.dtd"><svg t="1650442164029" class="icon" viewBox="0 0 1024 1024" version="1.1" xmlns="http://www.w3.org/2000/svg" p-id="6025" xmlns:xlink="http://www.w3.org/1999/xlink" width="200" height="200"><defs><style type="text/css"></style></defs><path d="M261.12 0H102.4a102.4 102.4 0 0 0-102.4 102.4v731.648a51.2 51.2 0 0 0 14.848 35.84l135.68 138.752a51.2 51.2 0 0 0 36.352 15.36 51.2 51.2 0 0 0 36.864-16.896L350.208 870.4a51.2 51.2 0 0 0 13.312-34.304V102.4a102.4 102.4 0 0 0-102.4-102.4z m0 102.4v114.176H102.4V102.4zM185.856 898.048L102.4 813.056V318.976h158.72v495.616zM512 168.448h263.168a51.2 51.2 0 0 0 0-102.4H512a51.2 51.2 0 0 0 0 102.4zM512 431.616h460.8a51.2 51.2 0 0 0 0-102.4h-460.8a51.2 51.2 0 0 0 0 102.4zM512 694.784h263.168a51.2 51.2 0 0 0 0-102.4H512a51.2 51.2 0 0 0 0 102.4zM972.8 855.552h-460.8a51.2 51.2 0 0 0 0 102.4h460.8a51.2 51.2 0 0 0 0-102.4z" fill="#3E4055" p-id="6026"></path></svg>