<?xml version="1.0" standalone="no"?><!DOCTYPE svg PUBLIC "-//W3C//DTD SVG 1.1//EN" "http://www.w3.org/Graphics/SVG/1.1/DTD/svg11.dtd"><svg t="1650442234757" class="icon" viewBox="0 0 1024 1024" version="1.1" xmlns="http://www.w3.org/2000/svg" p-id="6171" xmlns:xlink="http://www.w3.org/1999/xlink" width="200" height="200"><defs><style type="text/css"></style></defs><path d="M972.8 0H51.2a51.2 51.2 0 0 0-51.2 51.2v665.6a51.2 51.2 0 0 0 51.2 51.2h409.6v153.6H256a51.2 51.2 0 0 0 0 102.4h512a51.2 51.2 0 0 0 0-102.4h-204.8v-153.6h409.6a51.2 51.2 0 0 0 51.2-51.2V51.2a51.2 51.2 0 0 0-51.2-51.2z m-51.2 665.6H102.4V102.4h819.2z" fill="#3E4055" p-id="6172"></path><path d="M307.2 588.8a51.2 51.2 0 0 0 51.2-51.2v-102.4a51.2 51.2 0 0 0-102.4 0v102.4a51.2 51.2 0 0 0 51.2 51.2zM512 588.8a51.2 51.2 0 0 0 51.2-51.2v-204.8a51.2 51.2 0 0 0-102.4 0v204.8a51.2 51.2 0 0 0 51.2 51.2zM716.8 588.8a51.2 51.2 0 0 0 51.2-51.2v-307.2a51.2 51.2 0 0 0-102.4 0v307.2a51.2 51.2 0 0 0 51.2 51.2z" fill="#3E4055" p-id="6173"></path></svg>