<?xml version="1.0" standalone="no"?><!DOCTYPE svg PUBLIC "-//W3C//DTD SVG 1.1//EN" "http://www.w3.org/Graphics/SVG/1.1/DTD/svg11.dtd"><svg t="1652150020199" class="icon" viewBox="0 0 1024 1024" version="1.1" xmlns="http://www.w3.org/2000/svg" p-id="2180" xmlns:xlink="http://www.w3.org/1999/xlink" width="32" height="32"><defs><style type="text/css"></style></defs><path d="M847.602263 614.559844c-29.551141-21.109385-67.534049-33.777015-105.536936-33.777015-105.536937 0-189.964488 84.427551-189.964488 189.964488 0 37.992898 12.667629 75.985795 33.777015 105.536937H176.397737c-25.335259 0-42.218771-16.893502-42.218771-42.218771V116.426302c0-25.335259 16.883512-42.218771 42.218771-42.21877H809.609366c25.325268 0 42.20878 16.883512 42.20878 42.21877v498.123552h-4.215883z m-147.745717-329.278439c12.667629 0 21.109385-8.441756 21.109386-21.109385s-8.441756-21.109385-21.109386-21.109386H277.7088c-12.657639 0-21.109385 8.441756-21.109385 21.109386 0 12.657639 8.441756 21.109385 21.109385 21.109385h422.147746z m0 211.073873c12.667629 0 21.109385-8.441756 21.109386-21.109385s-8.441756-21.109385-21.109386-21.109386H277.7088c-12.657639 0-21.109385 8.441756-21.109385 21.109386 0 12.657639 8.441756 21.109385 21.109385 21.109385h422.147746zM273.492917 665.220371c-8.441756 0-16.883512 8.441756-16.883512 21.109385 0 12.657639 8.441756 21.109385 16.883512 21.109385h223.741503c8.441756 0 16.883512-8.441756 16.883512-21.109385s-8.441756-21.109385-16.883512-21.109385H273.492917z m0 0" p-id="2181"></path><path d="M763.174712 749.647922V686.329756c0-12.667629-8.441756-21.109385-21.109385-21.109385s-21.109385 8.441756-21.109386 21.109385v84.427551c0 4.225873 4.225873 12.667629 4.225874 16.883513 0 4.225873 8.441756 4.225873 16.883512 4.225873h84.427551c12.667629 0 21.109385-8.441756 21.109385-21.109386s-8.441756-21.109385-21.109385-21.109385h-63.318166z m-21.109385 168.845112c-80.201678 0-147.745717-67.544039-147.745717-147.745717s67.544039-147.745717 147.745717-147.745717c80.201678 0 147.745717 67.544039 147.745717 147.745717s-67.534049 147.745717-147.745717 147.745717z m0 0" p-id="2182"></path></svg>